<?xml version="1.0" encoding="UTF-8"?>
<!DOCTYPE svg PUBLIC "-//W3C//DTD SVG 1.1//EN" "http://www.w3.org/Graphics/SVG/1.1/DTD/svg11.dtd">

<svg    xmlns="http://www.w3.org/2000/svg"
        xml:space="preserve"
        width="100%"
        height="100%"
        style="shape-rendering:geometricPrecision; text-rendering:geometricPrecision; image-rendering:optimizeQuality; fill-rule:evenodd; clip-rule:evenodd"
        viewBox="0 0 130.076 130.076"
        xmlns:xlink="http://www.w3.org/1999/xlink">

 <defs>
  <style type="text/css">
   <![CDATA[
    .str0 {stroke:white;stroke-width:0.0762}
    .fil1 {fill:#1F1A17}
    .fil0 {fill:#DA251D}
   ]]>
  </style>
 </defs>
 <g id="Layer_x0020_1">
  <metadata id="CorelCorpID_0Corel-Layer"/>
  <polygon class="fil0 str0" points="100.038,20.0381 110.038,20.0381 110.038,30.0381 100.038,30.0381 "/>
  <polygon class="fil0 str0" points="80.0381,20.0381 90.0381,20.0381 90.0381,30.0381 80.0381,30.0381 "/>
  <polygon class="fil0 str0" points="70.0381,20.0381 80.0381,20.0381 80.0381,30.0381 70.0381,30.0381 "/>
  <polygon class="fil0 str0" points="50.0381,20.0381 60.0381,20.0381 60.0381,30.0381 50.0381,30.0381 "/>
  <polygon class="fil0 str0" points="40.0381,20.0381 50.0381,20.0381 50.0381,30.0381 40.0381,30.0381 "/>
  <polygon class="fil0 str0" points="20.0381,20.0381 30.0381,20.0381 30.0381,30.0381 20.0381,30.0381 "/>
  <polygon class="fil0 str0" points="80.0381,10.0381 90.0381,10.0381 90.0381,20.0381 80.0381,20.0381 "/>
  <polygon class="fil0 str0" points="70.0381,10.0381 80.0381,10.0381 80.0381,20.0381 70.0381,20.0381 "/>
  <polygon class="fil0 str0" points="50.0381,10.0381 60.0381,10.0381 60.0381,20.0381 50.0381,20.0381 "/>
  <polygon class="fil0 str0" points="40.0381,10.0381 50.0381,10.0381 50.0381,20.0381 40.0381,20.0381 "/>
  <polygon class="fil0 str0" points="110.038,50.0381 120.038,50.0381 120.038,60.0381 110.038,60.0381 "/>
  <polygon class="fil0 str0" points="100.038,50.0381 110.038,50.0381 110.038,60.0381 100.038,60.0381 "/>
  <polygon class="fil0 str0" points="90.0381,50.0381 100.038,50.0381 100.038,60.0381 90.0381,60.0381 "/>
  <polygon class="fil0 str0" points="30.0381,50.0381 40.0381,50.0381 40.0381,60.0381 30.0381,60.0381 "/>
  <polygon class="fil0 str0" points="20.0381,50.0381 30.0381,50.0381 30.0381,60.0381 20.0381,60.0381 "/>
  <polygon class="fil0 str0" points="10.0381,50.0381 20.0381,50.0381 20.0381,60.0381 10.0381,60.0381 "/>
  <polygon class="fil0 str0" points="80.0381,90.0381 90.0381,90.0381 90.0381,100.038 80.0381,100.038 "/>
  <polygon class="fil0 str0" points="70.0381,90.0381 80.0381,90.0381 80.0381,100.038 70.0381,100.038 "/>
  <polygon class="fil0 str0" points="50.0381,90.0381 60.0381,90.0381 60.0381,100.038 50.0381,100.038 "/>
  <polygon class="fil0 str0" points="40.0381,90.0381 50.0381,90.0381 50.0381,100.038 40.0381,100.038 "/>
  <polygon class="fil0 str0" points="100.038,100.038 110.038,100.038 110.038,110.038 100.038,110.038 "/>
  <polygon class="fil0 str0" points="80.0381,100.038 90.0381,100.038 90.0381,110.038 80.0381,110.038 "/>
  <polygon class="fil0 str0" points="70.0381,100.038 80.0381,100.038 80.0381,110.038 70.0381,110.038 "/>
  <polygon class="fil0 str0" points="50.0381,100.038 60.0381,100.038 60.0381,110.038 50.0381,110.038 "/>
  <polygon class="fil0 str0" points="40.0381,100.038 50.0381,100.038 50.0381,110.038 40.0381,110.038 "/>
  <polygon class="fil0 str0" points="20.0381,100.038 30.0381,100.038 30.0381,110.038 20.0381,110.038 "/>
  <polygon class="fil0 str0" points="80.0381,110.038 90.0381,110.038 90.0381,120.038 80.0381,120.038 "/>
  <polygon class="fil0 str0" points="70.0381,110.038 80.0381,110.038 80.0381,120.038 70.0381,120.038 "/>
  <polygon class="fil0 str0" points="50.0381,110.038 60.0381,110.038 60.0381,120.038 50.0381,120.038 "/>
  <polygon class="fil0 str0" points="40.0381,110.038 50.0381,110.038 50.0381,120.038 40.0381,120.038 "/>
  <polygon class="fil0 str0" points="80.0381,120.038 90.0381,120.038 90.0381,130.038 80.0381,130.038 "/>
  <polygon class="fil0 str0" points="40.0381,120.038 50.0381,120.038 50.0381,130.038 40.0381,130.038 "/>
  <polygon class="fil0 str0" points="80.0381,30.0381 90.0381,30.0381 90.0381,40.0381 80.0381,40.0381 "/>
  <polygon class="fil0 str0" points="70.0381,30.0381 80.0381,30.0381 80.0381,40.0381 70.0381,40.0381 "/>
  <polygon class="fil0 str0" points="50.0381,30.0381 60.0381,30.0381 60.0381,40.0381 50.0381,40.0381 "/>
  <polygon class="fil0 str0" points="40.0381,30.0381 50.0381,30.0381 50.0381,40.0381 40.0381,40.0381 "/>
  <polygon class="fil0 str0" points="110.038,70.0381 120.038,70.0381 120.038,80.0381 110.038,80.0381 "/>
  <polygon class="fil0 str0" points="100.038,70.0381 110.038,70.0381 110.038,80.0381 100.038,80.0381 "/>
  <polygon class="fil0 str0" points="90.0381,70.0381 100.038,70.0381 100.038,80.0381 90.0381,80.0381 "/>
  <polygon class="fil0 str0" points="30.0381,70.0381 40.0381,70.0381 40.0381,80.0381 30.0381,80.0381 "/>
  <polygon class="fil0 str0" points="20.0381,70.0381 30.0381,70.0381 30.0381,80.0381 20.0381,80.0381 "/>
  <polygon class="fil0 str0" points="10.0381,70.0381 20.0381,70.0381 20.0381,80.0381 10.0381,80.0381 "/>
  <polygon class="fil0 str0" points="80.0381,0.0381 90.0381,0.0381 90.0381,10.0381 80.0381,10.0381 "/>
  <polygon class="fil0 str0" points="40.0381,0.0381 50.0381,0.0381 50.0381,10.0381 40.0381,10.0381 "/>
  <polygon class="fil0 str0" points="120.038,40.0381 130.038,40.0381 130.038,50.0381 120.038,50.0381 "/>
  <polygon class="fil0 str0" points="110.038,40.0381 120.038,40.0381 120.038,50.0381 110.038,50.0381 "/>
  <polygon class="fil0 str0" points="100.038,40.0381 110.038,40.0381 110.038,50.0381 100.038,50.0381 "/>
  <polygon class="fil0 str0" points="90.0381,40.0381 100.038,40.0381 100.038,50.0381 90.0381,50.0381 "/>
  <polygon class="fil0 str0" points="80.0381,40.0381 90.0381,40.0381 90.0381,50.0381 80.0381,50.0381 "/>
  <polygon class="fil0 str0" points="40.0381,40.0381 50.0381,40.0381 50.0381,50.0381 40.0381,50.0381 "/>
  <polygon class="fil0 str0" points="30.0381,40.0381 40.0381,40.0381 40.0381,50.0381 30.0381,50.0381 "/>
  <polygon class="fil0 str0" points="20.0381,40.0381 30.0381,40.0381 30.0381,50.0381 20.0381,50.0381 "/>
  <polygon class="fil0 str0" points="10.0381,40.0381 20.0381,40.0381 20.0381,50.0381 10.0381,50.0381 "/>
  <polygon class="fil0 str0" points="0.0381,40.0381 10.0381,40.0381 10.0381,50.0381 0.0381,50.0381 "/>
  <polygon class="fil0 str0" points="120.038,80.0381 130.038,80.0381 130.038,90.0381 120.038,90.0381 "/>
  <polygon class="fil0 str0" points="110.038,80.0381 120.038,80.0381 120.038,90.0381 110.038,90.0381 "/>
  <polygon class="fil0 str0" points="100.038,80.0381 110.038,80.0381 110.038,90.0381 100.038,90.0381 "/>
  <polygon class="fil0 str0" points="90.0381,80.0381 100.038,80.0381 100.038,90.0381 90.0381,90.0381 "/>
  <polygon class="fil0 str0" points="80.0381,80.0381 90.0381,80.0381 90.0381,90.0381 80.0381,90.0381 "/>
  <g id="_87581880">
   <polygon id="_87581928" class="fil1 str0" points="80.0381,60.0381 90.0381,60.0381 90.0381,70.0381 80.0381,70.0381 "/>
   <polygon id="_87581784" class="fil1 str0" points="60.0381,60.0381 70.0381,60.0381 70.0381,70.0381 60.0381,70.0381 "/>
   <polygon id="_87581472" class="fil1 str0" points="40.0381,60.0381 50.0381,60.0381 50.0381,70.0381 40.0381,70.0381 "/>
   <polygon id="_87581952" class="fil1 str0" points="120.038,10.0381 130.038,10.0381 130.038,20.0381 120.038,20.0381 "/>
   <polygon id="_87581736" class="fil1 str0" points="110.038,10.0381 120.038,10.0381 120.038,20.0381 110.038,20.0381 "/>
   <polygon id="_87581520" class="fil1 str0" points="10.0381,10.0381 20.0381,10.0381 20.0381,20.0381 10.0381,20.0381 "/>
   <polygon id="_82353912" class="fil1 str0" points="0.0381,10.0381 10.0381,10.0381 10.0381,20.0381 0.0381,20.0381 "/>
   <polygon id="_82354080" class="fil1 str0" points="70.0381,50.0381 80.0381,50.0381 80.0381,60.0381 70.0381,60.0381 "/>
   <polygon id="_82353840" class="fil1 str0" points="50.0381,50.0381 60.0381,50.0381 60.0381,60.0381 50.0381,60.0381 "/>
   <polygon id="_82353768" class="fil1 str0" points="90.0381,90.0381 100.038,90.0381 100.038,100.038 90.0381,100.038 "/>
   <polygon id="_82354152" class="fil1 str0" points="30.0381,90.0381 40.0381,90.0381 40.0381,100.038 30.0381,100.038 "/>
   <polygon id="_82353936" class="fil1 str0" points="120.038,110.038 130.038,110.038 130.038,120.038 120.038,120.038 "/>
   <polygon id="_82354056" class="fil1 str0" points="110.038,110.038 120.038,110.038 120.038,120.038 110.038,120.038 "/>
   <polygon id="_79957112" class="fil1 str0" points="10.0381,110.038 20.0381,110.038 20.0381,120.038 10.0381,120.038 "/>
   <polygon id="_81946456" class="fil1 str0" points="0.0381,110.038 10.0381,110.038 10.0381,120.038 0.0381,120.038 "/>
   <polygon id="_79905904" class="fil1 str0" points="110.038,120.038 120.038,120.038 120.038,130.038 110.038,130.038 "/>
   <polygon id="_87977760" class="fil1 str0" points="10.0381,120.038 20.0381,120.038 20.0381,130.038 10.0381,130.038 "/>
   <polygon id="_87977832" class="fil1 str0" points="90.0381,30.0381 100.038,30.0381 100.038,40.0381 90.0381,40.0381 "/>
   <polygon id="_87977904" class="fil1 str0" points="30.0381,30.0381 40.0381,30.0381 40.0381,40.0381 30.0381,40.0381 "/>
   <polygon id="_87977976" class="fil1 str0" points="70.0381,70.0381 80.0381,70.0381 80.0381,80.0381 70.0381,80.0381 "/>
   <polygon id="_87978048" class="fil1 str0" points="50.0381,70.0381 60.0381,70.0381 60.0381,80.0381 50.0381,80.0381 "/>
   <polygon id="_87978120" class="fil1 str0" points="110.038,0.0381 120.038,0.0381 120.038,10.0381 110.038,10.0381 "/>
   <polygon id="_87978192" class="fil1 str0" points="10.0381,0.0381 20.0381,0.0381 20.0381,10.0381 10.0381,10.0381 "/>
   <polygon id="_87978264" class="fil1 str0" points="60.0381,40.0381 70.0381,40.0381 70.0381,50.0381 60.0381,50.0381 "/>
   <polygon id="_87978336" class="fil1 str0" points="60.0381,80.0381 70.0381,80.0381 70.0381,90.0381 60.0381,90.0381 "/>
  </g>
  <polygon class="fil0 str0" points="40.0381,80.0381 50.0381,80.0381 50.0381,90.0381 40.0381,90.0381 "/>
  <polygon class="fil0 str0" points="30.0381,80.0381 40.0381,80.0381 40.0381,90.0381 30.0381,90.0381 "/>
  <polygon class="fil0 str0" points="20.0381,80.0381 30.0381,80.0381 30.0381,90.0381 20.0381,90.0381 "/>
  <polygon class="fil0 str0" points="10.0381,80.0381 20.0381,80.0381 20.0381,90.0381 10.0381,90.0381 "/>
  <polygon class="fil0 str0" points="0.0381,80.0381 10.0381,80.0381 10.0381,90.0381 0.0381,90.0381 "/>
 </g>
</svg>
