<svg
   xmlns:dc="http://purl.org/dc/elements/1.1/"
   xmlns:cc="http://creativecommons.org/ns#"
   xmlns:rdf="http://www.w3.org/1999/02/22-rdf-syntax-ns#"
   xmlns:svg="http://www.w3.org/2000/svg"
   xmlns="http://www.w3.org/2000/svg"
   version="1.1"
   width="100%"
   height="100%"
   viewBox="0 0 637 343.17249">


  <g
     transform="translate(-58.752718,-85.59044)"
     id="layer1">

      <polygon
         points="110.038,20.0381 110.038,30.0381 100.038,30.0381 100.038,20.0381 "
         transform="matrix(4.8971333,0,0,4.8971333,58.752718,85.59044)"
         id="polygon3455"
         style="fill:#da251d;fill-rule:evenodd;stroke:#ffffff;stroke-width:0.0762" />
      <polygon
         points="90.0381,20.0381 90.0381,30.0381 80.0381,30.0381 80.0381,20.0381 "
         transform="matrix(4.8971333,0,0,4.8971333,58.752718,85.59044)"
         id="polygon3457"
         style="fill:#da251d;fill-rule:evenodd;stroke:#ffffff;stroke-width:0.0762" />
      <polygon
         points="80.0381,20.0381 80.0381,30.0381 70.0381,30.0381 70.0381,20.0381 "
         transform="matrix(4.8971333,0,0,4.8971333,58.752718,85.59044)"
         id="polygon3459"
         style="fill:#da251d;fill-rule:evenodd;stroke:#ffffff;stroke-width:0.0762" />
      <polygon
         points="60.0381,20.0381 60.0381,30.0381 50.0381,30.0381 50.0381,20.0381 "
         transform="matrix(4.8971333,0,0,4.8971333,58.752718,85.59044)"
         id="polygon3461"
         style="fill:#da251d;fill-rule:evenodd;stroke:#ffffff;stroke-width:0.0762" />
      <polygon
         points="50.0381,20.0381 50.0381,30.0381 40.0381,30.0381 40.0381,20.0381 "
         transform="matrix(4.8971333,0,0,4.8971333,58.752718,85.59044)"
         id="polygon3463"
         style="fill:#da251d;fill-rule:evenodd;stroke:#ffffff;stroke-width:0.0762" />
      <polygon
         points="30.0381,20.0381 30.0381,30.0381 20.0381,30.0381 20.0381,20.0381 "
         transform="matrix(4.8971333,0,0,4.8971333,58.752718,85.59044)"
         id="polygon3465"
         style="fill:#da251d;fill-rule:evenodd;stroke:#ffffff;stroke-width:0.0762" />
      <polygon
         points="90.0381,10.0381 90.0381,20.0381 80.0381,20.0381 80.0381,10.0381 "
         transform="matrix(4.8971333,0,0,4.8971333,58.752718,85.59044)"
         id="polygon3467"
         style="fill:#da251d;fill-rule:evenodd;stroke:#ffffff;stroke-width:0.0762" />
      <polygon
         points="80.0381,10.0381 80.0381,20.0381 70.0381,20.0381 70.0381,10.0381 "
         transform="matrix(4.8971333,0,0,4.8971333,58.752718,85.59044)"
         id="polygon3469"
         style="fill:#da251d;fill-rule:evenodd;stroke:#ffffff;stroke-width:0.0762" />
      <polygon
         points="60.0381,10.0381 60.0381,20.0381 50.0381,20.0381 50.0381,10.0381 "
         transform="matrix(4.8971333,0,0,4.8971333,58.752718,85.59044)"
         id="polygon3471"
         style="fill:#da251d;fill-rule:evenodd;stroke:#ffffff;stroke-width:0.0762" />
      <polygon
         points="50.0381,10.0381 50.0381,20.0381 40.0381,20.0381 40.0381,10.0381 "
         transform="matrix(4.8971333,0,0,4.8971333,58.752718,85.59044)"
         id="polygon3473"
         style="fill:#da251d;fill-rule:evenodd;stroke:#ffffff;stroke-width:0.0762" />
      <polygon
         points="120.038,50.0381 120.038,60.0381 110.038,60.0381 110.038,50.0381 "
         transform="matrix(4.8971333,0,0,4.8971333,58.752718,85.59044)"
         id="polygon3475"
         style="fill:#da251d;fill-rule:evenodd;stroke:#ffffff;stroke-width:0.0762" />
      <polygon
         points="110.038,50.0381 110.038,60.0381 100.038,60.0381 100.038,50.0381 "
         transform="matrix(4.8971333,0,0,4.8971333,58.752718,85.59044)"
         id="polygon3477"
         style="fill:#da251d;fill-rule:evenodd;stroke:#ffffff;stroke-width:0.0762" />
      <polygon
         points="100.038,50.0381 100.038,60.0381 90.0381,60.0381 90.0381,50.0381 "
         transform="matrix(4.8971333,0,0,4.8971333,58.752718,85.59044)"
         id="polygon3479"
         style="fill:#da251d;fill-rule:evenodd;stroke:#ffffff;stroke-width:0.0762" />
      <polygon
         points="40.0381,50.0381 40.0381,60.0381 30.0381,60.0381 30.0381,50.0381 "
         transform="matrix(4.8971333,0,0,4.8971333,58.752718,85.59044)"
         id="polygon3481"
         style="fill:#da251d;fill-rule:evenodd;stroke:#ffffff;stroke-width:0.0762" />
      <polygon
         points="30.0381,50.0381 30.0381,60.0381 20.0381,60.0381 20.0381,50.0381 "
         transform="matrix(4.8971333,0,0,4.8971333,58.752718,85.59044)"
         id="polygon3483"
         style="fill:#da251d;fill-rule:evenodd;stroke:#ffffff;stroke-width:0.0762" />
      <polygon
         points="20.0381,50.0381 20.0381,60.0381 10.0381,60.0381 10.0381,50.0381 "
         transform="matrix(4.8971333,0,0,4.8971333,58.752718,85.59044)"
         id="polygon3485"
         style="fill:#da251d;fill-rule:evenodd;stroke:#ffffff;stroke-width:0.0762" />
      <polygon
         points="90.0381,30.0381 90.0381,40.0381 80.0381,40.0381 80.0381,30.0381 "
         transform="matrix(4.8971333,0,0,4.8971333,58.752718,85.59044)"
         id="polygon3519"
         style="fill:#da251d;fill-rule:evenodd;stroke:#ffffff;stroke-width:0.0762" />
      <polygon
         points="80.0381,30.0381 80.0381,40.0381 70.0381,40.0381 70.0381,30.0381 "
         transform="matrix(4.8971333,0,0,4.8971333,58.752718,85.59044)"
         id="polygon3521"
         style="fill:#da251d;fill-rule:evenodd;stroke:#ffffff;stroke-width:0.0762" />
      <polygon
         points="60.0381,30.0381 60.0381,40.0381 50.0381,40.0381 50.0381,30.0381 "
         transform="matrix(4.8971333,0,0,4.8971333,58.752718,85.59044)"
         id="polygon3523"
         style="fill:#da251d;fill-rule:evenodd;stroke:#ffffff;stroke-width:0.0762" />
      <polygon
         points="50.0381,30.0381 50.0381,40.0381 40.0381,40.0381 40.0381,30.0381 "
         transform="matrix(4.8971333,0,0,4.8971333,58.752718,85.59044)"
         id="polygon3525"
         style="fill:#da251d;fill-rule:evenodd;stroke:#ffffff;stroke-width:0.0762" />
      <polygon
         points="90.0381,0.0381 90.0381,10.0381 80.0381,10.0381 80.0381,0.0381 "
         transform="matrix(4.8971333,0,0,4.8971333,58.752718,85.59044)"
         id="polygon3539"
         style="fill:#da251d;fill-rule:evenodd;stroke:#ffffff;stroke-width:0.0762" />
      <polygon
         points="50.0381,0.0381 50.0381,10.0381 40.0381,10.0381 40.0381,0.0381 "
         transform="matrix(4.8971333,0,0,4.8971333,58.752718,85.59044)"
         id="polygon3541"
         style="fill:#da251d;fill-rule:evenodd;stroke:#ffffff;stroke-width:0.0762" />
      <polygon
         points="130.038,40.0381 130.038,50.0381 120.038,50.0381 120.038,40.0381 "
         transform="matrix(4.8971333,0,0,4.8971333,58.752718,85.59044)"
         id="polygon3543"
         style="fill:#da251d;fill-rule:evenodd;stroke:#ffffff;stroke-width:0.0762" />
      <polygon
         points="120.038,40.0381 120.038,50.0381 110.038,50.0381 110.038,40.0381 "
         transform="matrix(4.8971333,0,0,4.8971333,58.752718,85.59044)"
         id="polygon3545"
         style="fill:#da251d;fill-rule:evenodd;stroke:#ffffff;stroke-width:0.0762" />
      <polygon
         points="110.038,40.0381 110.038,50.0381 100.038,50.0381 100.038,40.0381 "
         transform="matrix(4.8971333,0,0,4.8971333,58.752718,85.59044)"
         id="polygon3547"
         style="fill:#da251d;fill-rule:evenodd;stroke:#ffffff;stroke-width:0.0762" />
      <polygon
         points="100.038,40.0381 100.038,50.0381 90.0381,50.0381 90.0381,40.0381 "
         transform="matrix(4.8971333,0,0,4.8971333,58.752718,85.59044)"
         id="polygon3549"
         style="fill:#da251d;fill-rule:evenodd;stroke:#ffffff;stroke-width:0.0762" />
      <polygon
         points="90.0381,40.0381 90.0381,50.0381 80.0381,50.0381 80.0381,40.0381 "
         transform="matrix(4.8971333,0,0,4.8971333,58.752718,85.59044)"
         id="polygon3551"
         style="fill:#da251d;fill-rule:evenodd;stroke:#ffffff;stroke-width:0.0762" />
      <polygon
         points="50.0381,40.0381 50.0381,50.0381 40.0381,50.0381 40.0381,40.0381 "
         transform="matrix(4.8971333,0,0,4.8971333,58.752718,85.59044)"
         id="polygon3553"
         style="fill:#da251d;fill-rule:evenodd;stroke:#ffffff;stroke-width:0.0762" />
      <polygon
         points="40.0381,40.0381 40.0381,50.0381 30.0381,50.0381 30.0381,40.0381 "
         transform="matrix(4.8971333,0,0,4.8971333,58.752718,85.59044)"
         id="polygon3555"
         style="fill:#da251d;fill-rule:evenodd;stroke:#ffffff;stroke-width:0.0762" />
      <polygon
         points="30.0381,40.0381 30.0381,50.0381 20.0381,50.0381 20.0381,40.0381 "
         transform="matrix(4.8971333,0,0,4.8971333,58.752718,85.59044)"
         id="polygon3557"
         style="fill:#da251d;fill-rule:evenodd;stroke:#ffffff;stroke-width:0.0762" />
      <polygon
         points="20.0381,40.0381 20.0381,50.0381 10.0381,50.0381 10.0381,40.0381 "
         transform="matrix(4.8971333,0,0,4.8971333,58.752718,85.59044)"
         id="polygon3559"
         style="fill:#da251d;fill-rule:evenodd;stroke:#ffffff;stroke-width:0.0762" />
      <polygon
         points="10.0381,40.0381 10.0381,50.0381 0.0381,50.0381 0.0381,40.0381 "
         transform="matrix(4.8971333,0,0,4.8971333,58.752718,85.59044)"
         id="polygon3561"
         style="fill:#da251d;fill-rule:evenodd;stroke:#ffffff;stroke-width:0.0762" />
      <polygon
         points="80.0381,70.0381 80.0381,60.0381 90.0381,60.0381 90.0381,70.0381 "
         transform="matrix(4.8971333,0,0,4.8971333,58.752718,85.59044)"
         id="_87581928"
         style="fill:#1f1a17;fill-rule:evenodd;stroke:#ffffff;stroke-width:0.0762" />
      <polygon
         points="60.0381,70.0381 60.0381,60.0381 70.0381,60.0381 70.0381,70.0381 "
         transform="matrix(4.8971333,0,0,4.8971333,58.752718,85.59044)"
         id="_87581784"
         style="fill:#1f1a17;fill-rule:evenodd;stroke:#ffffff;stroke-width:0.0762" />
      <polygon
         points="40.0381,70.0381 40.0381,60.0381 50.0381,60.0381 50.0381,70.0381 "
         transform="matrix(4.8971333,0,0,4.8971333,58.752718,85.59044)"
         id="_87581472"
         style="fill:#1f1a17;fill-rule:evenodd;stroke:#ffffff;stroke-width:0.0762" />
      <polygon
         points="120.038,20.0381 120.038,10.0381 130.038,10.0381 130.038,20.0381 "
         transform="matrix(4.8971333,0,0,4.8971333,58.752718,85.59044)"
         id="_87581952"
         style="fill:#1f1a17;fill-rule:evenodd;stroke:#ffffff;stroke-width:0.0762" />
      <polygon
         points="110.038,20.0381 110.038,10.0381 120.038,10.0381 120.038,20.0381 "
         transform="matrix(4.8971333,0,0,4.8971333,58.752718,85.59044)"
         id="_87581736"
         style="fill:#1f1a17;fill-rule:evenodd;stroke:#ffffff;stroke-width:0.0762" />
      <polygon
         points="10.0381,20.0381 10.0381,10.0381 20.0381,10.0381 20.0381,20.0381 "
         transform="matrix(4.8971333,0,0,4.8971333,58.752718,85.59044)"
         id="_87581520"
         style="fill:#1f1a17;fill-rule:evenodd;stroke:#ffffff;stroke-width:0.0762" />
      <polygon
         points="0.0381,20.0381 0.0381,10.0381 10.0381,10.0381 10.0381,20.0381 "
         transform="matrix(4.8971333,0,0,4.8971333,58.752718,85.59044)"
         id="_82353912"
         style="fill:#1f1a17;fill-rule:evenodd;stroke:#ffffff;stroke-width:0.0762" />
      <polygon
         points="70.0381,60.0381 70.0381,50.0381 80.0381,50.0381 80.0381,60.0381 "
         transform="matrix(4.8971333,0,0,4.8971333,58.752718,85.59044)"
         id="_82354080"
         style="fill:#1f1a17;fill-rule:evenodd;stroke:#ffffff;stroke-width:0.0762" />
      <polygon
         points="50.0381,60.0381 50.0381,50.0381 60.0381,50.0381 60.0381,60.0381 "
         transform="matrix(4.8971333,0,0,4.8971333,58.752718,85.59044)"
         id="_82353840"
         style="fill:#1f1a17;fill-rule:evenodd;stroke:#ffffff;stroke-width:0.0762" />
      <polygon
         points="90.0381,40.0381 90.0381,30.0381 100.038,30.0381 100.038,40.0381 "
         transform="matrix(4.8971333,0,0,4.8971333,58.752718,85.59044)"
         id="_87977832"
         style="fill:#1f1a17;fill-rule:evenodd;stroke:#ffffff;stroke-width:0.0762" />
      <polygon
         points="30.0381,40.0381 30.0381,30.0381 40.0381,30.0381 40.0381,40.0381 "
         transform="matrix(4.8971333,0,0,4.8971333,58.752718,85.59044)"
         id="_87977904"
         style="fill:#1f1a17;fill-rule:evenodd;stroke:#ffffff;stroke-width:0.0762" />
      <polygon
         points="110.038,10.0381 110.038,0.0381 120.038,0.0381 120.038,10.0381 "
         transform="matrix(4.8971333,0,0,4.8971333,58.752718,85.59044)"
         id="_87978120"
         style="fill:#1f1a17;fill-rule:evenodd;stroke:#ffffff;stroke-width:0.0762" />
      <polygon
         points="10.0381,10.0381 10.0381,0.0381 20.0381,0.0381 20.0381,10.0381 "
         transform="matrix(4.8971333,0,0,4.8971333,58.752718,85.59044)"
         id="_87978192"
         style="fill:#1f1a17;fill-rule:evenodd;stroke:#ffffff;stroke-width:0.0762" />
      <polygon
         points="60.0381,50.0381 60.0381,40.0381 70.0381,40.0381 70.0381,50.0381 "
         transform="matrix(4.8971333,0,0,4.8971333,58.752718,85.59044)"
         id="_87978264"
         style="fill:#1f1a17;fill-rule:evenodd;stroke:#ffffff;stroke-width:0.0762" />
  </g>

</svg>
